<svg xmlns="http://www.w3.org/2000/svg" version="1.0" width="240mm" height="240mm" viewBox="0 0 240 240"><path fill="none" stroke="DarkBlue" stroke-width="0.2" d="M 47.94 50.66 C 52.64 54.33 64.26 54.98 55.16 59.84 C 46.05 64.7 61.23 73.91 62.74 64.45 C 64.26 54.98 68.25 62.82 73.24 66.01 C 78.22 63.83 87.45 62.47 79.36 57.79 C 71.27 53.11 85.3 45.01 86.38 53.74 C 87.45 62.47 91.71 54.8 96.62 52.51 C 101.06 55.11 106.58 61.87 105.85 53.16 C 105.12 44.45 119.15 50.66 112.87 56.26 C 106.58 61.87 115.15 61.19 120 62.86 C 124.8 61.07 129.79 54.4 129.5 62.91 C 129.21 71.43 143.24 65.22 136.51 59.81 C 129.79 54.4 138.96 55.16 143.38 52.51 C 147.84 55.59 152.81 63.07 153.06 53.86 C 153.32 44.66 167.35 52.76 160.08 57.91 C 152.81 63.07 161.96 63.52 166.76 66.01 C 171.41 62.26 176.25 54.09 177.38 63.79 C 178.51 73.49 193.69 64.28 184.97 59.19 C 176.25 54.09 186.59 53.05 192.06 50.66 M 23.92 92.26 C 29.38 94.62 34.42 103.47 35.12 93.73 C 35.83 83.99 51.39 92.54 42.9 98 C 34.42 103.47 44.45 104.06 49.86 106.5 C 54.43 104.09 62.92 100.9 54.88 97.27 C 46.84 93.64 59.23 84.6 61.07 92.75 C 62.92 100.9 66.32 94.36 70.51 91.43 C 75.84 93.63 81.51 101.89 81.48 91.97 C 81.45 82.06 96.3 90.63 88.91 96.26 C 81.51 101.89 90.63 102.31 95.26 105.71 C 100.48 103.34 105.11 95.19 105.53 104.84 C 105.95 114.5 120.79 105.93 112.95 100.56 C 105.11 95.19 115.47 95.01 120 91.43 C 124.81 94.52 134.07 94.76 126.15 100.09 C 118.24 105.42 133.09 113.99 133.58 104.37 C 134.07 94.76 139.96 102.58 144.74 105.71 C 149.75 102.97 155.57 94.13 155.63 103.99 C 155.69 113.85 170.53 105.28 163.05 99.71 C 155.57 94.13 164.92 94.94 169.49 91.43 C 173.22 94.99 177.68 101.72 179.27 93.38 C 180.86 85.05 193.25 94.09 185.47 97.9 C 177.68 101.72 186.13 103.33 190.14 106.5 C 194.95 102.96 201.37 95.38 201.63 105.37 C 201.88 115.35 217.44 106.81 209.41 101.09 C 201.37 95.38 211.2 95.68 216.08 92.26 M 23.92 147.74 C 28.81 144.35 39.32 144.35 31.06 138.76 C 22.8 133.17 38.36 124.63 38.84 134.49 C 39.32 144.35 44.61 136.24 49.86 133.5 C 53.68 136.94 57.7 144.77 59.35 136.47 C 60.99 128.18 73.39 137.22 65.54 140.99 C 57.7 144.77 66.57 145.3 70.51 148.57 C 75.15 145.18 79.71 138.54 80.68 147.88 C 81.66 157.21 96.5 148.64 88.1 143.59 C 79.71 138.54 89.99 136.59 95.26 134.29 C 100.26 137.05 105.1 145.69 106.11 136.37 C 107.11 127.05 121.96 135.62 113.53 140.65 C 105.1 145.69 115.04 145.73 120 148.57 C 124.9 145.63 135.51 144.29 127.13 139.22 C 118.75 134.16 133.6 125.59 134.55 134.94 C 135.51 144.29 140.17 137.79 144.74 134.29 C 149.28 137.86 160.08 138.75 151.45 143.66 C 142.82 148.58 157.67 157.15 158.88 147.95 C 160.08 138.75 164.51 145.76 169.49 148.57 C 173.56 145.48 177.92 138.46 178.78 147.33 C 179.65 156.19 192.04 147.15 184.98 142.81 C 177.92 138.46 186.18 136.74 190.14 133.5 C 195.24 136.51 200.12 144.2 201.23 134.68 C 202.33 125.16 217.89 133.71 209.01 138.95 C 200.12 144.2 210.92 144.83 216.08 147.74 M 47.94 189.34 C 53.26 186.7 57.36 177.49 58.91 186.93 C 60.46 196.37 75.64 187.16 66.5 182.33 C 57.36 177.49 68.53 177.64 73.24 173.99 C 77.89 176.74 82.17 184.27 82.8 175.28 C 83.42 166.29 97.45 174.39 89.81 179.33 C 82.17 184.27 91.72 185.19 96.62 187.49 C 101.5 185.88 107 179.06 107.17 187.38 C 107.34 195.69 121.36 189.48 114.18 184.27 C 107 179.06 115.39 179.37 120 177.14 C 124.72 179.12 134.18 178.76 126.96 183.95 C 119.73 189.14 133.76 195.35 133.97 187.06 C 134.18 178.76 138.92 184.94 143.38 187.49 C 148.03 184.75 156.66 184.83 149.58 179.57 C 142.5 174.3 156.53 166.2 156.6 175.52 C 156.66 184.83 162.05 176.63 166.76 173.99 C 171.81 177.08 176.56 185.32 177.82 175.7 C 179.08 166.09 194.26 175.29 185.41 180.31 C 176.56 185.32 187.14 186.04 192.06 189.34 "></path><path fill="none" stroke="DarkRed" stroke-width="0.2" d="M 95.98 22.93 C 95.68 28.85 92.49 37.66 101.28 33.89 C 110.08 30.12 110.46 47.87 101.48 42.76 C 92.49 37.66 97.28 46.57 96.62 52.51 M 144.02 22.93 C 144.46 28.86 148.06 37.85 139.28 33.52 C 130.49 29.19 130.11 46.93 139.09 42.39 C 148.06 37.85 144.02 46.6 143.38 52.51 M 73.24 66.01 C 72.83 71.1 76.1 79.93 68.95 74.68 C 61.79 69.43 60.16 84.69 68.13 82.31 C 76.1 79.93 71.51 86.39 70.51 91.43 M 120 62.86 C 120.32 68.57 115.98 77 124.55 73.56 C 133.12 70.12 133.12 87.26 124.55 82.13 C 115.98 77 119.83 85.71 120 91.43 M 166.76 66.01 C 167.75 71.04 171.98 77.81 163.93 74.7 C 155.88 71.6 157.52 86.85 164.75 82.33 C 171.98 77.81 169.32 86.3 169.49 91.43 M 49.86 106.5 C 49.27 111.9 46.19 119.65 54.29 115.8 C 62.39 111.95 62.39 128.15 54.29 123.9 C 46.19 119.65 50.52 128.1 49.86 133.5 M 95.26 105.71 C 95.49 111.43 99.28 120.24 90.71 115.68 C 82.14 111.12 82.14 128.26 90.71 124.25 C 99.28 120.24 95.28 128.57 95.26 134.29 M 144.74 105.71 C 144.33 111.43 140.15 120.3 148.72 116.44 C 157.29 112.57 157.29 129.72 148.72 125.01 C 140.15 120.3 144.22 128.57 144.74 134.29 M 190.14 106.5 C 190.29 111.9 194.21 118.81 186.11 115.34 C 178.01 111.86 178.01 128.06 186.11 123.44 C 194.21 118.81 189.64 128.1 190.14 133.5 M 70.51 148.57 C 71.25 153.64 68.41 161.8 75.55 156.45 C 82.69 151.09 84.33 166.35 76.37 164.07 C 68.41 161.8 73.19 168.86 73.24 173.99 M 120 148.57 C 119.27 154.29 125.02 162.29 116.45 157.9 C 107.88 153.51 107.88 170.66 116.45 166.47 C 125.02 162.29 119.82 171.43 120 177.14 M 169.49 148.57 C 169.05 153.67 165.04 160.34 173.03 157.8 C 181.02 155.26 179.38 170.51 172.21 165.43 C 165.04 160.34 167.32 168.91 166.76 173.99 M 96.62 187.49 C 96.66 193.41 92.13 200.6 101.08 197.1 C 110.03 193.6 109.65 211.34 100.89 205.97 C 92.13 200.6 96.48 211.16 95.98 217.07 M 143.38 187.49 C 143.17 193.42 148.57 202.47 139.59 197.72 C 130.61 192.98 130.99 210.73 139.78 206.6 C 148.57 202.47 144.68 211.14 144.02 217.07 "></path><path fill="none" stroke="Black" stroke-width="0.2" d="M 20 120 a 100 100 0 1 0 200 0 a 100 100 0 1 0 -200 0 "></path></svg>
