<svg xmlns="http://www.w3.org/2000/svg" version="1.0" width="288mm" height="288mm" viewBox="0 0 288 288"><path fill="none" stroke="DarkBlue" stroke-width="0.2" d="M 76.5 53.07 C 78.65 54.54 84.29 54.86 80.47 56.7 C 76.65 58.55 82.72 62.05 83.51 58.46 C 84.29 54.86 85.22 58.76 87.75 59.56 C 89.95 58.18 94.53 57.4 91.05 55.36 C 87.58 53.32 93.65 49.81 94.09 53.61 C 94.53 57.4 97.03 54.85 99 53.07 C 100.97 54.85 105.82 54.75 102.39 56.83 C 98.97 58.9 105.04 62.41 105.43 58.58 C 105.82 54.75 107.7 58.78 110.25 59.56 C 112.54 58.33 116.09 57.54 112.66 55.48 C 109.23 53.41 115.3 49.9 115.7 53.72 C 116.09 57.54 119.43 54.67 121.5 53.07 C 123.57 54.68 126.24 58 126.49 54.09 C 126.74 50.18 132.81 53.69 129.53 55.84 C 126.24 58 130.62 58.05 132.75 59.56 C 135.02 58.3 137.61 54.4 138.15 58.14 C 138.69 61.88 144.77 58.37 141.19 56.39 C 137.61 54.4 141.87 54.57 144 53.07 C 146.07 54.69 148.38 57.46 148.71 53.61 C 149.05 49.75 155.12 53.26 151.75 55.36 C 148.38 57.46 153.07 58.14 155.25 59.56 C 157.51 58.29 160.16 54.2 160.55 58.02 C 160.93 61.85 167.01 58.34 163.59 56.27 C 160.16 54.2 163.97 53.88 166.5 53.07 C 168.78 54.31 170.76 58.13 171.34 54.42 C 171.92 50.7 177.99 54.21 174.37 56.17 C 170.76 58.13 175.79 57.77 177.75 59.56 C 180.15 58.53 182.99 54.59 182.9 58.69 C 182.81 62.79 188.88 59.29 185.93 56.94 C 182.99 54.59 187.06 54.91 189 53.07 C 191.34 54.2 195.85 55.7 192.22 57.65 C 188.58 59.6 194.66 63.1 195.26 59.4 C 195.85 55.7 197.81 58.59 200.25 59.56 C 202.72 58.65 206.97 58.3 204.02 55.95 C 201.06 53.61 207.14 50.1 207.05 54.2 C 206.97 58.3 209.41 54.64 211.5 53.07 M 65.25 72.55 C 67.19 74.39 69.96 76.68 70.5 72.95 C 71.05 69.22 77.13 72.72 73.54 74.7 C 69.96 76.68 74.5 77.32 76.5 79.05 C 78.66 77.6 80.22 74.22 80.92 77.86 C 81.63 81.51 87.7 78 83.96 76.11 C 80.22 74.22 85.29 73.48 87.75 72.55 C 90.21 73.49 92.84 78.09 92.7 73.96 C 92.57 69.83 98.64 73.34 95.74 75.72 C 92.84 78.09 96.95 77.4 99 79.05 C 101.4 78.02 106.36 77.27 102.63 75.37 C 98.91 73.47 104.98 69.96 105.67 73.62 C 106.36 77.27 107.72 73.37 110.25 72.55 C 112.23 74.33 115.78 74.27 112.93 76.67 C 110.08 79.08 116.16 82.59 115.97 78.43 C 115.78 74.27 119.21 77.83 121.5 79.05 C 123.85 77.92 127.14 74.24 127.09 78.32 C 127.04 82.4 133.12 78.89 130.13 76.57 C 127.14 74.24 130.21 73.34 132.75 72.55 C 134.83 74.15 139.63 75.14 136.17 77.19 C 132.71 79.25 138.78 82.75 139.21 78.95 C 139.63 75.14 141.53 78.12 144 79.05 C 146.52 78.22 151.54 77.4 147.93 75.44 C 144.31 73.48 150.38 69.97 150.96 73.68 C 151.54 77.4 152.95 73.77 155.25 72.55 C 157.8 73.33 161.48 74.32 158.07 76.4 C 154.66 78.49 160.74 81.99 161.11 78.16 C 161.48 74.32 164.01 78.16 166.5 79.05 C 168.63 77.54 172.99 77.42 169.68 75.28 C 166.36 73.15 172.44 69.64 172.71 73.53 C 172.99 77.42 175.45 73.76 177.75 72.55 C 180.09 73.69 183.06 77.49 182.83 73.31 C 182.6 69.12 188.68 72.63 185.87 75.06 C 183.06 77.49 187 77.31 189 79.05 C 191.53 78.23 195.19 77.35 192.27 74.99 C 189.35 72.62 195.43 69.11 195.31 73.23 C 195.19 77.35 198.05 73.95 200.25 72.55 C 202.2 74.37 204.38 77.16 204.66 73.27 C 204.93 69.38 211.01 72.89 207.69 75.02 C 204.38 77.16 209.12 77.97 211.5 79.05 C 213.6 77.48 217.64 76.98 214.1 74.97 C 210.56 72.97 216.63 69.46 217.14 73.22 C 217.64 76.98 220.51 73.88 222.75 72.55 M 54 92.04 C 56.21 93.41 58.97 96.35 59.55 92.64 C 60.13 88.92 66.2 92.43 62.59 94.39 C 58.97 96.35 63.14 97 65.25 98.53 C 67.54 97.3 69.45 94.51 70.2 98.13 C 70.95 101.74 77.03 98.23 73.24 96.37 C 69.45 94.51 74.2 93.25 76.5 92.04 C 78.84 93.18 81.02 97.12 81.72 93.47 C 82.41 89.82 88.49 93.33 84.76 95.22 C 81.02 97.12 85.45 97.32 87.75 98.53 C 89.74 96.78 93.48 96.92 90.5 94.6 C 87.52 92.27 93.59 88.76 93.54 92.84 C 93.48 96.92 97.05 93.85 99 92.04 C 101.19 93.43 105.16 93.73 101.86 95.88 C 98.56 98.02 104.64 101.53 104.9 97.63 C 105.16 93.73 107.71 97.73 110.25 98.53 C 112.41 97.08 114.29 93.43 114.88 97.14 C 115.47 100.86 121.54 97.35 117.92 95.39 C 114.29 93.43 118.99 92.89 121.5 92.04 C 123.57 93.65 128.48 93.42 124.89 95.4 C 121.31 97.38 127.38 100.89 127.93 97.16 C 128.48 93.42 130.76 96.79 132.75 98.53 C 135.17 97.53 137.86 94.25 137.74 98.37 C 137.62 102.49 143.7 98.98 140.78 96.62 C 137.86 94.25 141.88 93.56 144 92.04 C 146.55 92.82 149.26 96.51 149.74 92.73 C 150.22 88.96 156.3 92.47 152.78 94.49 C 149.26 96.51 152.77 97.62 155.25 98.53 C 157.38 97.03 162.11 96.74 158.39 94.84 C 154.67 92.93 160.74 89.43 161.42 93.08 C 162.11 96.74 164.08 93.05 166.5 92.04 C 168.9 93.08 171.08 97.3 170.97 93.19 C 170.86 89.08 176.94 92.59 174.01 94.94 C 171.08 97.3 175.23 97.7 177.75 98.53 C 180.03 97.28 182.54 93.41 182.97 97.21 C 183.4 101.01 189.47 97.5 186 95.46 C 182.54 93.41 186.8 93.43 189 92.04 C 190.98 93.81 194.93 93.69 191.81 95.94 C 188.69 98.19 194.77 101.7 194.85 97.69 C 194.93 93.69 197.98 97.27 200.25 98.53 C 202.28 96.86 206.39 97.49 203.59 95.05 C 200.79 92.62 206.86 89.11 206.62 93.3 C 206.39 97.49 209.48 93.74 211.5 92.04 C 213.77 93.31 218.29 94.28 214.6 96.2 C 210.91 98.12 216.99 101.63 217.64 97.96 C 218.29 94.28 220.53 97.18 222.75 98.53 C 224.99 97.22 228.8 96.7 225.26 94.69 C 221.73 92.68 227.8 89.17 228.3 92.94 C 228.8 96.7 231.68 93.22 234 92.04 M 42.75 111.52 C 45.21 112.46 49.26 113.03 45.8 115.08 C 42.34 117.13 48.41 120.64 48.84 116.84 C 49.26 113.03 51.96 116.35 54 118.02 C 56.18 116.6 58.41 113.14 59.13 116.78 C 59.84 120.41 65.92 116.91 62.16 115.02 C 58.41 113.14 62.78 112.45 65.25 111.52 C 67.69 112.49 70.18 117.06 70.49 113.19 C 70.8 109.32 76.87 112.82 73.52 114.94 C 70.18 117.06 74.54 116.22 76.5 118.02 C 78.46 116.22 81.41 113.17 82 116.88 C 82.58 120.59 88.66 117.09 85.04 115.13 C 81.41 113.17 85.38 112.61 87.75 111.52 C 89.89 113.02 94.47 113.47 91.03 115.54 C 87.59 117.6 93.67 121.11 94.07 117.29 C 94.47 113.47 96.75 116.72 99 118.02 C 100.95 116.2 104.71 116.03 101.57 113.79 C 98.43 111.55 104.51 108.05 104.61 112.04 C 104.71 116.03 108.11 113.01 110.25 111.52 C 112.21 113.32 116.89 113.12 113.72 115.34 C 110.56 117.56 116.64 121.07 116.76 117.09 C 116.89 113.12 119.57 116.16 121.5 118.02 C 123.6 116.46 127.71 115.89 124.34 113.79 C 120.96 111.69 127.03 108.18 127.37 112.03 C 127.71 115.89 130.58 112.96 132.75 111.52 C 135.3 112.31 137.44 116.78 137.44 112.74 C 137.44 108.69 143.52 112.19 140.48 114.49 C 137.44 116.78 141.48 117.19 144 118.02 C 145.99 116.26 148 114.28 148.77 117.88 C 149.55 121.48 155.63 117.97 151.81 116.13 C 148 114.28 153.03 112.87 155.25 111.52 C 157.45 112.91 162.07 112.81 158.8 114.97 C 155.53 117.13 161.6 120.64 161.83 116.73 C 162.07 112.81 164.14 116.91 166.5 118.02 C 168.59 116.44 171.93 112.84 171.69 117.03 C 171.44 121.22 177.51 117.71 174.72 115.27 C 171.93 112.84 175.34 112.55 177.75 111.52 C 180.11 112.64 181.69 115.69 182.41 112.05 C 183.12 108.41 189.2 111.92 185.44 113.81 C 181.69 115.69 186.83 116.59 189 118.02 C 191.24 116.7 195.88 116.1 192.57 113.96 C 189.26 111.82 195.34 108.31 195.61 112.2 C 195.88 116.1 198.17 113.11 200.25 111.52 C 202.38 113.03 207.15 113.17 203.77 115.27 C 200.39 117.37 206.47 120.88 206.81 117.02 C 207.15 113.17 209.38 116.49 211.5 118.02 C 213.61 116.48 217.87 115.94 215.07 113.5 C 212.28 111.07 218.35 107.56 218.11 111.75 C 217.87 115.94 220.78 113.31 222.75 111.52 C 224.69 113.36 227.93 115.95 227.76 111.8 C 227.59 107.65 233.66 111.16 230.8 113.56 C 227.93 115.95 231.71 116.79 234 118.02 C 236.55 117.24 238.94 112.64 238.91 116.71 C 238.87 120.78 244.95 117.28 241.95 114.96 C 238.94 112.64 243.14 113.07 245.25 111.52 M 31.5 131.01 C 33.67 132.45 36.12 135.74 36.72 132.03 C 37.32 128.33 43.4 131.84 39.76 133.79 C 36.12 135.74 40.19 136.75 42.75 137.5 C 44.73 135.75 49.1 135.63 45.73 133.53 C 42.36 131.42 48.44 127.91 48.77 131.77 C 49.1 135.63 52.02 132.78 54 131.01 C 56.17 132.44 58.46 136.01 59.18 132.37 C 59.89 128.73 65.97 132.24 62.21 134.12 C 58.46 136.01 62.75 136.64 65.25 137.5 C 67.3 135.85 70.94 132.53 70.93 136.58 C 70.93 140.64 77 137.13 73.97 134.83 C 70.94 132.53 74.14 132.12 76.5 131.01 C 78.79 132.24 83.71 132.85 79.99 134.75 C 76.27 136.65 82.34 140.16 83.03 136.5 C 83.71 132.85 85.39 136.39 87.75 137.5 C 89.79 135.85 92.78 131.95 92.86 135.96 C 92.94 139.96 99.02 136.45 95.9 134.2 C 92.78 131.95 96.79 132.38 99 131.01 C 101.27 132.28 105.18 132.2 102.33 134.61 C 99.49 137.02 105.57 140.53 105.37 136.37 C 105.18 132.2 107.87 136.42 110.25 137.5 C 112.82 136.76 116.18 135.97 113.25 133.61 C 110.33 131.25 116.41 127.74 116.29 131.86 C 116.18 135.97 118.96 131.81 121.5 131.01 C 123.64 132.5 126.05 135.67 126.01 131.6 C 125.97 127.53 132.05 131.03 129.05 133.35 C 126.05 135.67 130.45 136.29 132.75 137.5 C 135.01 136.22 139.08 136.22 136.03 133.93 C 132.97 131.65 139.05 128.14 139.06 132.18 C 139.08 136.22 141.79 132.38 144 131.01 C 146 132.74 150.33 132.18 147.5 134.59 C 144.66 137.01 150.73 140.51 150.53 136.35 C 150.33 132.18 153.27 135.73 155.25 137.5 C 157.26 135.79 161.76 135.99 158.78 133.66 C 155.79 131.33 161.87 127.82 161.81 131.91 C 161.76 135.99 164.52 132.78 166.5 131.01 C 168.67 132.44 172.24 132.36 169.52 134.84 C 166.8 137.32 172.87 140.82 172.56 136.59 C 172.24 132.36 175.69 135.87 177.75 137.5 C 179.75 135.77 183.09 131.72 182.9 135.87 C 182.72 140.03 188.79 136.52 185.94 134.12 C 183.09 131.72 186.7 132.21 189 131.01 C 191.48 131.91 196.06 132.34 192.56 134.37 C 189.06 136.4 195.14 139.91 195.6 136.12 C 196.06 132.34 198.14 135.96 200.25 137.5 C 202.59 136.37 205.98 132.14 205.7 136.35 C 205.41 140.57 211.49 137.06 208.73 134.6 C 205.98 132.14 209.57 132.86 211.5 131.01 C 214.03 131.83 216.72 135.52 216.45 131.31 C 216.18 127.1 222.26 130.61 219.49 133.06 C 216.72 135.52 220.36 136.45 222.75 137.5 C 224.73 135.73 227.76 133.09 227.67 137.19 C 227.57 141.3 233.65 137.79 230.7 135.44 C 227.76 133.09 231.61 132.06 234 131.01 C 236.13 132.52 239.83 133.03 236.39 135.09 C 232.94 137.15 239.02 140.66 239.42 136.84 C 239.83 133.03 243.29 135.71 245.25 137.5 C 247.18 135.65 250.75 136.1 247.96 133.66 C 245.17 131.22 251.24 127.72 251 131.91 C 250.75 136.1 254.46 132.67 256.5 131.01 M 31.5 156.99 C 33.64 155.5 36.09 152.38 36.56 156.16 C 37.03 159.94 43.11 156.43 39.6 154.41 C 36.09 152.38 40.31 151.46 42.75 150.5 C 45.09 151.64 49.02 152.12 46.12 154.5 C 43.21 156.87 49.29 160.38 49.16 156.25 C 49.02 152.12 51.56 156.03 54 156.99 C 56.2 155.6 58.17 152.61 58.7 156.35 C 59.22 160.1 65.3 156.6 61.74 154.6 C 58.17 152.61 63.01 151.81 65.25 150.5 C 67.57 151.67 71.78 151.69 68.45 153.82 C 65.12 155.95 71.19 159.46 71.48 155.57 C 71.78 151.69 74.41 155.41 76.5 156.99 C 78.69 155.58 80.63 151.99 81.27 155.67 C 81.91 159.35 87.98 155.84 84.3 153.92 C 80.63 151.99 85.18 151.24 87.75 150.5 C 90.03 151.74 94.23 152.23 91.3 154.58 C 88.36 156.94 94.44 160.45 94.34 156.34 C 94.23 152.23 96.68 155.81 99 156.99 C 101.2 155.6 105.16 154.72 102.02 152.48 C 98.88 150.24 104.96 146.74 105.06 150.73 C 105.16 154.72 107.78 151.41 110.25 150.5 C 112.74 151.38 116.21 151.77 113.47 154.24 C 110.73 156.71 116.81 160.22 116.51 156 C 116.21 151.77 119.01 156.1 121.5 156.99 C 124.07 156.25 125.56 151.95 125.73 155.9 C 125.9 159.85 131.98 156.35 128.77 154.15 C 125.56 151.95 130.7 152.13 132.75 150.5 C 134.93 151.91 137.82 154.76 137.84 150.72 C 137.86 146.68 143.93 150.19 140.88 152.47 C 137.82 154.76 141.82 155.58 144 156.99 C 146.25 155.7 150.14 155.24 147.1 152.94 C 144.06 150.65 150.14 147.14 150.14 151.19 C 150.14 155.24 153.32 152.35 155.25 150.5 C 157.63 151.56 160.3 155.23 160.88 151.52 C 161.47 147.8 167.54 151.31 163.92 153.27 C 160.3 155.23 164.23 155.72 166.5 156.99 C 168.78 155.74 173.12 154.87 170.11 152.55 C 167.1 150.24 173.17 146.73 173.14 150.8 C 173.12 154.87 175.52 151.82 177.75 150.5 C 179.76 152.22 183.98 152.72 180.97 155.03 C 177.95 157.34 184.03 160.84 184 156.78 C 183.98 152.72 187.06 155.15 189 156.99 C 191.02 155.29 193.38 152.35 193.41 156.38 C 193.44 160.41 199.51 156.91 196.45 154.63 C 193.38 152.35 197.93 151.67 200.25 150.5 C 202.77 151.33 207.78 152.78 204.05 154.68 C 200.33 156.58 206.41 160.09 207.09 156.43 C 207.78 152.78 209.28 155.64 211.5 156.99 C 214.06 156.23 216.35 152.73 216.42 156.74 C 216.49 160.75 222.57 157.24 219.46 154.98 C 216.35 152.73 220.74 152.21 222.75 150.5 C 225.21 151.44 227.58 155.35 228.18 151.64 C 228.78 147.94 234.86 151.45 231.22 153.4 C 227.58 155.35 231.92 155.39 234 156.99 C 236.24 155.68 240.26 155.71 236.88 153.61 C 233.51 151.51 239.58 148 239.92 151.86 C 240.26 155.71 242.69 151.27 245.25 150.5 C 247.73 151.39 252.51 152.25 248.68 154.09 C 244.85 155.92 250.92 159.43 251.72 155.84 C 252.51 152.25 254.51 155.23 256.5 156.99 M 42.75 176.48 C 44.97 175.13 49.65 174.08 45.86 172.21 C 42.08 170.35 48.15 166.84 48.9 170.46 C 49.65 174.08 51.98 171.67 54 169.98 C 55.94 171.82 59.19 174.83 59.6 171.02 C 60 167.2 66.07 170.71 62.63 172.77 C 59.19 174.83 62.77 175.58 65.25 176.48 C 67.68 175.49 72.23 174.91 69.04 172.71 C 65.85 170.5 71.93 166.99 72.08 170.95 C 72.23 174.91 74.13 171.08 76.5 169.98 C 78.76 171.27 81.17 175.37 81.17 171.32 C 81.17 167.27 87.24 170.78 84.2 173.07 C 81.17 175.37 85.36 175.42 87.75 176.48 C 90.25 175.6 93.98 175.41 90.91 173.13 C 87.84 170.86 93.91 167.35 93.94 171.38 C 93.98 175.41 96.74 171.27 99 169.98 C 101.39 171.04 103.78 174.61 104.19 170.8 C 104.6 166.98 110.68 170.49 107.23 172.55 C 103.78 174.61 107.71 175.67 110.25 176.48 C 112.43 175.06 113.95 171.65 114.74 175.24 C 115.53 178.84 121.6 175.33 117.77 173.49 C 113.95 171.65 119.16 171.12 121.5 169.98 C 123.7 171.37 127.91 171.89 124.4 173.91 C 120.88 175.93 126.96 179.43 127.44 175.66 C 127.91 171.89 130.57 175.05 132.75 176.48 C 135.16 175.46 138.65 174.45 135.64 172.14 C 132.62 169.83 138.69 166.32 138.67 170.38 C 138.65 174.45 141.9 171.54 144 169.98 C 146.4 171.01 149.38 171.59 146.59 174.03 C 143.8 176.47 149.88 179.98 149.63 175.78 C 149.38 171.59 153.17 174.88 155.25 176.48 C 157.4 175 162.29 174.92 159.16 172.68 C 156.03 170.44 162.11 166.93 162.2 170.92 C 162.29 174.92 164.57 171.83 166.5 169.98 C 168.64 171.47 172.4 171.61 169.45 173.96 C 166.5 176.31 172.58 179.82 172.49 175.71 C 172.4 171.61 175.43 175.3 177.75 176.48 C 180.1 175.36 182.93 171.39 182.81 175.51 C 182.69 179.62 188.77 176.12 185.85 173.75 C 182.93 171.39 186.59 171 189 169.98 C 190.96 171.78 193.79 174.17 193.81 170.13 C 193.83 166.09 199.91 169.6 196.85 171.89 C 193.79 174.17 197.79 175.55 200.25 176.48 C 202.76 175.63 204.76 171.37 204.71 175.45 C 204.66 179.53 210.73 176.02 207.74 173.7 C 204.76 171.37 209.41 171.56 211.5 169.98 C 213.89 171.04 215.99 174.97 215.79 170.8 C 215.59 166.64 221.67 170.14 218.83 172.56 C 215.99 174.97 220.63 174.94 222.75 176.48 C 225.24 175.59 229.37 174.16 226.3 171.88 C 223.23 169.6 229.3 166.1 229.34 170.13 C 229.37 174.16 231.93 171.6 234 169.98 C 236.45 170.93 240.32 171.55 237.47 173.95 C 234.62 176.35 240.69 179.86 240.51 175.7 C 240.32 171.55 243.06 175.07 245.25 176.48 M 54 195.96 C 56.03 194.27 61.4 194.33 57.83 192.34 C 54.25 190.35 60.33 186.85 60.86 190.59 C 61.4 194.33 63.02 190.8 65.25 189.47 C 67.27 191.16 70.11 193.58 70.48 189.75 C 70.85 185.91 76.92 189.42 73.52 191.5 C 70.11 193.58 74.55 194.13 76.5 195.96 C 78.7 194.58 81.27 190.94 81.92 194.61 C 82.57 198.29 88.65 194.78 84.96 192.86 C 81.27 190.94 85.49 190.74 87.75 189.47 C 90.04 190.7 94.1 191.72 90.82 193.88 C 87.55 196.04 93.62 199.55 93.86 195.63 C 94.1 191.72 96.49 195.12 99 195.96 C 101.44 194.99 104.9 190.96 104.6 195.19 C 104.29 199.42 110.36 195.91 107.63 193.44 C 104.9 190.96 107.79 190.41 110.25 189.47 C 112.36 191 114.94 194.59 115.29 190.74 C 115.64 186.89 121.71 190.4 118.32 192.5 C 114.94 194.59 119.53 194.18 121.5 195.96 C 123.6 194.41 125.59 190.94 125.68 194.94 C 125.77 198.94 131.84 195.44 128.72 193.19 C 125.59 190.94 130.26 190.34 132.75 189.47 C 135.23 190.37 139.53 191.44 136.27 193.61 C 133.01 195.78 139.09 199.29 139.31 195.36 C 139.53 191.44 141.68 194.78 144 195.96 C 146.25 194.66 148.36 191.79 148.9 195.53 C 149.45 199.27 155.52 195.76 151.94 193.78 C 148.36 191.79 153.01 190.78 155.25 189.47 C 157.33 191.06 160.14 194.93 160.5 191.08 C 160.85 187.24 166.92 190.75 163.53 192.84 C 160.14 194.93 164.55 194.15 166.5 195.96 C 168.5 194.23 172.03 191.24 172.03 195.29 C 172.04 199.33 178.12 195.82 175.07 193.53 C 172.03 191.24 175.45 190.69 177.75 189.47 C 179.83 191.06 184.36 191.59 180.68 193.51 C 177 195.44 183.07 198.95 183.72 195.27 C 184.36 191.59 186.64 194.85 189 195.96 C 191.54 195.16 195.53 194.04 191.95 192.06 C 188.36 190.08 194.43 186.57 194.98 190.3 C 195.53 194.04 197.93 190.65 200.25 189.47 C 202.52 190.73 205.48 193.82 205.53 189.8 C 205.57 185.77 211.65 189.28 208.56 191.55 C 205.48 193.82 209.52 194.19 211.5 195.96 C 213.62 194.44 218.24 194.31 215.29 191.96 C 212.34 189.62 218.41 186.11 218.33 190.21 C 218.24 194.31 220.73 191.17 222.75 189.47 C 225.16 190.48 229.2 191.47 226.18 193.78 C 223.16 196.09 229.24 199.59 229.22 195.53 C 229.2 191.47 231.82 194.54 234 195.96 M 65.25 215.45 C 67.61 214.34 71.98 213.99 68.34 212.04 C 64.71 210.09 70.78 206.59 71.38 210.29 C 71.98 213.99 74.44 210.58 76.5 208.95 C 79.06 209.72 81.78 213.57 82.1 209.7 C 82.41 205.83 88.48 209.34 85.13 211.45 C 81.78 213.57 85.36 214.39 87.75 215.45 C 90 214.14 94.18 213.39 91.01 211.18 C 87.83 208.96 93.9 205.45 94.04 209.42 C 94.18 213.39 96.76 210.27 99 208.95 C 101.18 210.38 103.17 212.79 103.7 209.05 C 104.22 205.3 110.3 208.81 106.73 210.8 C 103.17 212.79 108.09 213.99 110.25 215.45 C 112.35 213.88 115.3 210.8 115.59 214.68 C 115.88 218.56 121.96 215.06 118.63 212.93 C 115.3 210.8 119.07 209.94 121.5 208.95 C 123.61 210.49 128.04 210.29 124.78 212.46 C 121.52 214.62 127.59 218.13 127.81 214.21 C 128.04 210.29 130.19 214.69 132.75 215.45 C 135.06 214.25 137.03 210.33 137.34 214.2 C 137.66 218.07 143.73 214.56 140.38 212.45 C 137.03 210.33 141.46 209.75 144 208.95 C 146.53 209.77 150.21 210.47 147.12 212.74 C 144.03 215.01 150.11 218.52 150.16 214.49 C 150.21 210.47 152.73 214.61 155.25 215.45 C 157.34 213.87 161.96 213.68 158.51 211.63 C 155.05 209.57 161.13 206.07 161.55 209.88 C 161.96 213.68 164.23 210.22 166.5 208.95 C 168.58 210.55 173.42 210.46 169.99 212.53 C 166.57 214.6 172.64 218.11 173.03 214.29 C 173.42 210.46 175.27 214.55 177.75 215.45 C 179.7 213.62 182.58 211.36 183.16 215.08 C 183.73 218.8 189.8 215.29 186.19 213.33 C 182.58 211.36 186.89 210.49 189 208.95 C 191.13 210.46 193.87 214.18 193.87 210.13 C 193.88 206.08 199.95 209.59 196.91 211.88 C 193.87 214.18 197.97 214.2 200.25 215.45 C 202.19 213.6 204.27 211.07 204.73 214.85 C 205.19 218.64 211.26 215.13 207.77 213.1 C 204.27 211.07 209.41 210.53 211.5 208.95 C 213.44 210.78 217.68 211.11 214.19 213.14 C 210.7 215.18 216.77 218.69 217.23 214.9 C 217.68 211.11 220.72 213.77 222.75 215.45 M 76.5 234.93 C 78.75 233.63 82.24 229.98 82.09 234.11 C 81.94 238.25 88.01 234.74 85.13 232.36 C 82.24 229.98 85.18 229.18 87.75 228.44 C 90.15 229.47 94.16 230.4 91.21 232.74 C 88.25 235.08 94.32 238.59 94.24 234.49 C 94.16 230.4 96.81 233.53 99 234.93 C 101.4 233.89 105.57 233.57 102.5 231.29 C 99.43 229.02 105.5 225.51 105.53 229.54 C 105.57 233.57 107.98 229.7 110.25 228.44 C 112.76 229.29 117.01 230.03 113.94 232.31 C 110.87 234.59 116.94 238.09 116.97 234.06 C 117.01 230.03 119.25 233.64 121.5 234.93 C 123.77 233.66 125.74 230.55 126.32 234.26 C 126.91 237.98 132.98 234.47 129.36 232.51 C 125.74 230.55 130.54 229.81 132.75 228.44 C 135.22 229.36 138.18 233.94 138.13 229.86 C 138.08 225.78 144.16 229.28 141.17 231.61 C 138.18 233.94 141.58 233.94 144 234.93 C 146.13 233.42 149.43 229.44 149.36 233.53 C 149.28 237.62 155.36 234.12 152.4 231.78 C 149.43 229.44 152.74 229.28 155.25 228.44 C 157.47 229.78 162.52 229.86 159.34 232.08 C 156.17 234.3 162.24 237.8 162.38 233.83 C 162.52 229.86 164.29 233.56 166.5 234.93 C 168.43 233.09 173.03 233.55 169.39 231.6 C 165.75 229.65 171.83 226.15 172.43 229.85 C 173.03 233.55 175.18 229.19 177.75 228.44 C 179.72 230.23 184.89 229.81 181.06 231.65 C 177.23 233.49 183.31 237 184.1 233.4 C 184.89 229.81 186.66 233.78 189 234.93 C 191.19 233.53 195.11 233.45 192.36 230.98 C 189.61 228.52 195.69 225.01 195.4 229.23 C 195.11 233.45 198.15 229.99 200.25 228.44 C 202.82 229.19 204.43 233.1 204.77 229.24 C 205.1 225.38 211.18 228.89 207.81 230.99 C 204.43 233.1 209.15 233.81 211.5 234.93 "></path><path fill="none" stroke="DarkRed" stroke-width="0.2" d="M 99 40.08 C 98.7 42.68 97.72 46.83 101.23 45.05 C 104.73 43.27 104.73 50.29 101.23 48.56 C 97.72 46.83 99.58 50.47 99 53.07 M 121.5 40.08 C 120.87 42.68 122.67 47 119.16 44.8 C 115.66 42.59 115.66 49.61 119.16 48.31 C 122.67 47 121.04 50.47 121.5 53.07 M 144 40.08 C 143.54 42.68 141.93 46.76 145.43 44.47 C 148.94 42.18 148.94 49.19 145.43 47.98 C 141.93 46.76 144.03 50.47 144 53.07 M 166.5 40.08 C 167.03 42.68 168.3 47.09 164.79 45.04 C 161.29 43 161.29 50.02 164.79 48.55 C 168.3 47.09 166.04 50.47 166.5 53.07 M 189 40.08 C 189.15 42.68 186.7 45.74 190.2 44.37 C 193.71 43 193.71 50.01 190.2 47.88 C 186.7 45.74 189.33 50.47 189 53.07 M 87.75 59.56 C 87.18 62.16 89.63 66.38 86.12 64.37 C 82.61 62.36 82.61 69.37 86.12 67.88 C 89.63 66.38 88.39 69.95 87.75 72.55 M 110.25 59.56 C 110.73 62.16 108.46 65.43 111.97 64.24 C 115.47 63.05 115.47 70.07 111.97 67.75 C 108.46 65.43 109.88 69.95 110.25 72.55 M 132.75 59.56 C 132.87 62.16 130.84 66.88 134.35 64.78 C 137.86 62.68 137.86 69.69 134.35 68.28 C 130.84 66.88 132.85 69.95 132.75 72.55 M 155.25 59.56 C 155.87 62.16 153.84 67.07 157.35 64.86 C 160.85 62.64 160.85 69.65 157.35 68.36 C 153.84 67.07 155.52 69.95 155.25 72.55 M 177.75 59.56 C 177.93 62.16 175.43 66.25 178.94 64.41 C 182.44 62.58 182.44 69.59 178.94 67.92 C 175.43 66.25 177.57 69.95 177.75 72.55 M 200.25 59.56 C 199.63 62.16 198.78 65.72 202.29 64.45 C 205.8 63.19 205.8 70.2 202.29 67.96 C 198.78 65.72 200.24 69.95 200.25 72.55 M 76.5 79.05 C 77.12 81.65 78.19 85.61 74.68 83.97 C 71.17 82.34 71.17 89.35 74.68 87.48 C 78.19 85.61 76 89.44 76.5 92.04 M 99 79.05 C 98.95 81.65 96.73 84.6 100.23 83.45 C 103.74 82.3 103.74 89.31 100.23 86.96 C 96.73 84.6 98.39 89.44 99 92.04 M 121.5 79.05 C 121.7 81.65 119.16 85.81 122.67 83.61 C 126.18 81.41 126.18 88.42 122.67 87.11 C 119.16 85.81 120.86 89.44 121.5 92.04 M 144 79.05 C 143.49 81.65 141.95 86 145.46 83.79 C 148.96 81.58 148.96 88.59 145.46 87.3 C 141.95 86 144.57 89.44 144 92.04 M 166.5 79.05 C 167.15 81.65 164.51 84.69 168.02 83.15 C 171.52 81.61 171.52 88.62 168.02 86.66 C 164.51 84.69 166.6 89.44 166.5 92.04 M 189 79.05 C 188.82 81.65 190.64 86.39 187.13 84.27 C 183.62 82.15 183.62 89.17 187.13 87.78 C 190.64 86.39 188.54 89.44 189 92.04 M 211.5 79.05 C 210.97 81.65 213.32 84.66 209.82 83.31 C 206.31 81.96 206.31 88.97 209.82 86.82 C 213.32 84.66 211.76 89.44 211.5 92.04 M 65.25 98.53 C 65.73 101.13 66.7 105.12 63.19 103.59 C 59.68 102.07 59.68 109.08 63.19 107.1 C 66.7 105.12 64.91 108.93 65.25 111.52 M 87.75 98.53 C 87.64 101.13 85.5 105.48 89.01 103.13 C 92.52 100.79 92.52 107.8 89.01 106.64 C 85.5 105.48 87.2 108.93 87.75 111.52 M 110.25 98.53 C 110.23 101.13 112.1 104.6 108.59 103.04 C 105.09 101.47 105.09 108.49 108.59 106.54 C 112.1 104.6 109.91 108.93 110.25 111.52 M 132.75 98.53 C 132.58 101.13 135.07 105.48 131.57 103.83 C 128.06 102.17 128.06 109.19 131.57 107.34 C 135.07 105.48 133 108.93 132.75 111.52 M 155.25 98.53 C 155.85 101.13 153.05 105.44 156.56 103.16 C 160.07 100.88 160.07 107.89 156.56 106.67 C 153.05 105.44 155.77 108.93 155.25 111.52 M 177.75 98.53 C 177.82 101.13 179.17 105.57 175.66 103.19 C 172.15 100.8 172.15 107.82 175.66 106.69 C 179.17 105.57 177.55 108.93 177.75 111.52 M 200.25 98.53 C 200.23 101.13 201.42 105.04 197.92 103.39 C 194.41 101.73 194.41 108.75 197.92 106.89 C 201.42 105.04 199.92 108.93 200.25 111.52 M 222.75 98.53 C 223.16 101.13 220.9 104.3 224.4 103 C 227.91 101.7 227.91 108.71 224.4 106.5 C 220.9 104.3 223.35 108.93 222.75 111.52 M 54 118.02 C 53.64 120.62 52.54 124.96 56.05 122.91 C 59.56 120.85 59.56 127.87 56.05 126.42 C 52.54 124.96 54.28 128.41 54 131.01 M 76.5 118.02 C 76.06 120.62 77.71 125.48 74.21 123.16 C 70.7 120.85 70.7 127.86 74.21 126.67 C 77.71 125.48 76.73 128.41 76.5 131.01 M 99 118.02 C 99.6 120.62 97.11 124.85 100.62 122.44 C 104.12 120.04 104.12 127.05 100.62 125.95 C 97.11 124.85 98.45 128.41 99 131.01 M 121.5 118.02 C 121.71 120.62 119.74 123.37 123.25 122.16 C 126.76 120.95 126.76 127.97 123.25 125.67 C 119.74 123.37 120.96 128.41 121.5 131.01 M 144 118.02 C 144.24 120.62 142.11 125.02 145.61 122.95 C 149.12 120.88 149.12 127.89 145.61 126.45 C 142.11 125.02 143.51 128.41 144 131.01 M 166.5 118.02 C 166.14 120.62 168.83 124.4 165.33 122.81 C 161.82 121.22 161.82 128.23 165.33 126.32 C 168.83 124.4 166.47 128.41 166.5 131.01 M 189 118.02 C 189.53 120.62 186.93 123.35 190.44 122.15 C 193.95 120.95 193.95 127.96 190.44 125.66 C 186.93 123.35 188.91 128.41 189 131.01 M 211.5 118.02 C 211.71 120.62 210.28 125.28 213.79 123.38 C 217.3 121.47 217.3 128.48 213.79 126.88 C 210.28 125.28 211.99 128.41 211.5 131.01 M 234 118.02 C 233.64 120.62 232.04 123.79 235.54 122.53 C 239.05 121.27 239.05 128.29 235.54 126.04 C 232.04 123.79 233.72 128.41 234 131.01 M 42.75 137.5 C 42.95 140.1 44.38 144.04 40.87 142.59 C 37.37 141.14 37.37 148.15 40.87 146.1 C 44.38 144.04 42.96 147.9 42.75 150.5 M 65.25 137.5 C 65.67 140.1 67.3 144.04 63.79 142.68 C 60.28 141.32 60.28 148.33 63.79 146.19 C 67.3 144.04 65.16 147.9 65.25 150.5 M 87.75 137.5 C 87.37 140.1 89.38 144.48 85.87 142.76 C 82.36 141.04 82.36 148.05 85.87 146.26 C 89.38 144.48 87.84 147.9 87.75 150.5 M 110.25 137.5 C 109.9 140.1 111.48 143.19 107.97 142.07 C 104.46 140.96 104.46 147.98 107.97 145.58 C 111.48 143.19 110.28 147.9 110.25 150.5 M 132.75 137.5 C 133 140.1 131.46 143.47 134.97 142.12 C 138.48 140.77 138.48 147.78 134.97 145.63 C 131.46 143.47 132.91 147.9 132.75 150.5 M 155.25 137.5 C 154.88 140.1 153.89 144.86 157.4 142.69 C 160.91 140.51 160.91 147.53 157.4 146.19 C 153.89 144.86 155.63 147.9 155.25 150.5 M 177.75 137.5 C 178.28 140.1 176.16 143.92 179.67 141.7 C 183.18 139.49 183.18 146.5 179.67 145.21 C 176.16 143.92 177.8 147.9 177.75 150.5 M 200.25 137.5 C 200.03 140.1 202.03 142.81 198.52 141.6 C 195.01 140.39 195.01 147.41 198.52 145.11 C 202.03 142.81 200.1 147.9 200.25 150.5 M 222.75 137.5 C 222.74 140.1 224.69 143.91 221.18 142.5 C 217.67 141.08 217.67 148.1 221.18 146 C 224.69 143.91 223.28 147.9 222.75 150.5 M 245.25 137.5 C 245.61 140.1 247.24 144.4 243.73 142.1 C 240.22 139.8 240.22 146.82 243.73 145.61 C 247.24 144.4 245.12 147.9 245.25 150.5 M 54 156.99 C 54.12 159.59 52.55 163.86 56.06 161.97 C 59.57 160.08 59.57 167.1 56.06 165.48 C 52.55 163.86 54.63 167.38 54 169.98 M 76.5 156.99 C 76.13 159.59 78.27 163.28 74.76 162.06 C 71.25 160.84 71.25 167.86 74.76 165.57 C 78.27 163.28 76.42 167.38 76.5 169.98 M 99 156.99 C 98.49 159.59 100.34 162.75 96.83 161.44 C 93.32 160.13 93.32 167.14 96.83 164.95 C 100.34 162.75 99.19 167.38 99 169.98 M 121.5 156.99 C 121.04 159.59 122.75 163.12 119.24 161.82 C 115.73 160.52 115.73 167.54 119.24 165.33 C 122.75 163.12 120.98 167.38 121.5 169.98 M 144 156.99 C 143.88 159.59 141.76 163.73 145.27 161.92 C 148.78 160.11 148.78 167.12 145.27 165.43 C 141.76 163.73 144.29 167.38 144 169.98 M 166.5 156.99 C 167.13 159.59 165.33 163.88 168.84 162.24 C 172.34 160.6 172.34 167.61 168.84 165.75 C 165.33 163.88 166.68 167.38 166.5 169.98 M 189 156.99 C 188.42 159.59 187.22 163.09 190.73 161.8 C 194.23 160.52 194.23 167.53 190.73 165.31 C 187.22 163.09 189.24 167.38 189 169.98 M 211.5 156.99 C 211.66 159.59 210.25 163.17 213.76 161.51 C 217.27 159.85 217.27 166.87 213.76 165.02 C 210.25 163.17 210.92 167.38 211.5 169.98 M 234 156.99 C 234.61 159.59 232.88 163.96 236.39 162.27 C 239.9 160.59 239.9 167.6 236.39 165.78 C 232.88 163.96 234.61 167.38 234 169.98 M 65.25 176.48 C 65.85 179.07 62.92 183.62 66.43 181.52 C 69.94 179.42 69.94 186.44 66.43 185.03 C 62.92 183.62 64.99 186.87 65.25 189.47 M 87.75 176.48 C 88.04 179.07 90.08 182.82 86.57 180.97 C 83.06 179.12 83.06 186.13 86.57 184.48 C 90.08 182.82 87.27 186.87 87.75 189.47 M 110.25 176.48 C 109.64 179.07 109.01 183.3 112.52 181.04 C 116.03 178.78 116.03 185.79 112.52 184.55 C 109.01 183.3 110.53 186.87 110.25 189.47 M 132.75 176.48 C 133.31 179.07 134.32 183.22 130.81 181.46 C 127.31 179.7 127.31 186.71 130.81 184.97 C 134.32 183.22 132.48 186.87 132.75 189.47 M 155.25 176.48 C 155.87 179.07 157.5 182.93 154 180.89 C 150.49 178.85 150.49 185.86 154 184.4 C 157.5 182.93 155.4 186.87 155.25 189.47 M 177.75 176.48 C 177.21 179.07 179.35 183.22 175.84 181.74 C 172.33 180.25 172.33 187.27 175.84 185.24 C 179.35 183.22 177.95 186.87 177.75 189.47 M 200.25 176.48 C 200.58 179.07 198.9 182.16 202.4 180.71 C 205.91 179.25 205.91 186.26 202.4 184.21 C 198.9 182.16 199.73 186.87 200.25 189.47 M 222.75 176.48 C 222.34 179.07 220.38 182.82 223.89 181.69 C 227.39 180.56 227.39 187.58 223.89 185.2 C 220.38 182.82 222.26 186.87 222.75 189.47 M 76.5 195.96 C 76.23 198.56 78.21 203.32 74.7 201.13 C 71.2 198.94 71.2 205.96 74.7 204.64 C 78.21 203.32 76.64 206.35 76.5 208.95 M 99 195.96 C 99.53 198.56 97.87 201.75 101.38 200.35 C 104.88 198.96 104.88 205.97 101.38 203.86 C 97.87 201.75 99.63 206.35 99 208.95 M 121.5 195.96 C 121.53 198.56 123.25 203.39 119.74 201.15 C 116.23 198.91 116.23 205.92 119.74 204.66 C 123.25 203.39 121.44 206.35 121.5 208.95 M 144 195.96 C 144.44 198.56 142.27 203.27 145.78 201.17 C 149.28 199.07 149.28 206.09 145.78 204.68 C 142.27 203.27 143.64 206.35 144 208.95 M 166.5 195.96 C 167.12 198.56 164.13 202.33 167.63 200.19 C 171.14 198.06 171.14 205.08 167.63 203.7 C 164.13 202.33 166.55 206.35 166.5 208.95 M 189 195.96 C 189.64 198.56 187.75 202.53 191.26 200.99 C 194.77 199.45 194.77 206.46 191.26 204.49 C 187.75 202.53 188.92 206.35 189 208.95 M 211.5 195.96 C 211.01 198.56 209.32 202.5 212.83 200.16 C 216.33 197.82 216.33 204.84 212.83 203.67 C 209.32 202.5 211.76 206.35 211.5 208.95 M 87.75 215.45 C 87.19 218.05 85.48 221.88 88.98 220.5 C 92.49 219.13 92.49 226.14 88.98 224.01 C 85.48 221.88 87.21 225.84 87.75 228.44 M 110.25 215.45 C 110.68 218.05 107.92 222.07 111.43 220.58 C 114.94 219.09 114.94 226.1 111.43 224.09 C 107.92 222.07 110.55 225.84 110.25 228.44 M 132.75 215.45 C 132.59 218.05 134.55 222.1 131.04 220.11 C 127.53 218.12 127.53 225.13 131.04 223.62 C 134.55 222.1 133.37 225.84 132.75 228.44 M 155.25 215.45 C 155.05 218.05 157.16 221.96 153.66 219.97 C 150.15 217.98 150.15 224.99 153.66 223.48 C 157.16 221.96 155.73 225.84 155.25 228.44 M 177.75 215.45 C 177.98 218.05 179.78 222.45 176.27 220.78 C 172.76 219.12 172.76 226.13 176.27 224.29 C 179.78 222.45 178.35 225.84 177.75 228.44 M 200.25 215.45 C 200.5 218.05 201.55 221.33 198.04 219.73 C 194.53 218.13 194.53 225.15 198.04 223.24 C 201.55 221.33 200.27 225.84 200.25 228.44 M 99 234.93 C 99.4 237.53 96.68 241.05 100.19 239.78 C 103.7 238.51 103.7 245.52 100.19 243.28 C 96.68 241.05 99.62 245.32 99 247.92 M 121.5 234.93 C 120.94 237.53 122.75 241 119.24 239.49 C 115.73 237.98 115.73 244.99 119.24 243 C 122.75 241 121.47 245.32 121.5 247.92 M 144 234.93 C 144.52 237.53 142.06 240.45 145.57 239.24 C 149.08 238.03 149.08 245.05 145.57 242.75 C 142.06 240.45 143.83 245.32 144 247.92 M 166.5 234.93 C 166.81 237.53 167.88 242.28 164.37 240.17 C 160.86 238.06 160.86 245.08 164.37 243.68 C 167.88 242.28 166.18 245.32 166.5 247.92 M 189 234.93 C 189.14 237.53 187.8 241.84 191.3 240.02 C 194.81 238.2 194.81 245.22 191.3 243.53 C 187.8 241.84 188.84 245.32 189 247.92 "></path><path fill="none" stroke="Black" stroke-width="0.2" d="M 76.5 40.08 L 87.75 33.58 L 99 40.08 L 110.25 33.58 L 121.5 40.08 L 132.75 33.58 L 144 40.08 L 155.25 33.58 L 166.5 40.08 L 177.75 33.58 L 189 40.08 L 200.25 33.58 L 211.5 40.08 L 211.5 53.07 L 222.75 59.56 L 222.75 72.55 L 234 79.05 L 234 92.04 L 245.25 98.53 L 245.25 111.52 L 256.5 118.02 L 256.5 131.01 L 267.75 137.5 L 267.75 150.5 L 256.5 156.99 L 256.5 169.98 L 245.25 176.48 L 245.25 189.47 L 234 195.96 L 234 208.95 L 222.75 215.45 L 222.75 228.44 L 211.5 234.93 L 211.5 247.92 L 200.25 254.42 L 189 247.92 L 177.75 254.42 L 166.5 247.92 L 155.25 254.42 L 144 247.92 L 132.75 254.42 L 121.5 247.92 L 110.25 254.42 L 99 247.92 L 87.75 254.42 L 76.5 247.92 L 76.5 234.93 L 65.25 228.44 L 65.25 215.45 L 54 208.95 L 54 195.96 L 42.75 189.47 L 42.75 176.48 L 31.5 169.98 L 31.5 156.99 L 20.25 150.5 L 20.25 137.5 L 31.5 131.01 L 31.5 118.02 L 42.75 111.52 L 42.75 98.53 L 54 92.04 L 54 79.05 L 65.25 72.55 L 65.25 59.56 L 76.5 53.07 L 76.5 40.08 "></path></svg>
